<?xml version="1.0" encoding="iso-8859-1"?>
<!-- Uploaded to: SVG Repo, www.svgrepo.com, Generator: SVG Repo Mixer Tools -->
<!DOCTYPE svg PUBLIC "-//W3C//DTD SVG 1.1//EN" "http://www.w3.org/Graphics/SVG/1.1/DTD/svg11.dtd">
<svg fill="#000000" height="800px" width="800px" version="1.1" id="Capa_1" xmlns="http://www.w3.org/2000/svg" xmlns:xlink="http://www.w3.org/1999/xlink" 
	 viewBox="0 0 401.89 401.89" xml:space="preserve">
<g>
	<path d="M200.947,98.829c-56.305,0-102.112,45.807-102.112,102.112s45.807,102.112,102.112,102.112
		c56.304,0,102.112-45.808,102.112-102.112S257.251,98.829,200.947,98.829z M200.947,288.053c-48.034,0-87.112-39.079-87.112-87.112
		s39.078-87.112,87.112-87.112s87.112,39.078,87.112,87.112S248.981,288.053,200.947,288.053z"/>
	<path d="M200.947,91.063c18.589,0,33.713-15.124,33.713-33.713s-15.124-33.713-33.713-33.713c-18.59,0-33.713,15.124-33.713,33.713
		S182.357,91.063,200.947,91.063z M200.947,38.636c10.319,0,18.713,8.395,18.713,18.713s-8.395,18.713-18.713,18.713
		c-10.318,0-18.713-8.395-18.713-18.713S190.629,38.636,200.947,38.636z"/>
	<path d="M200.947,310.819c-18.59,0-33.713,15.124-33.713,33.713s15.124,33.713,33.713,33.713c18.589,0,33.713-15.124,33.713-33.713
		S219.536,310.819,200.947,310.819z M200.947,363.246c-10.318,0-18.713-8.395-18.713-18.713s8.395-18.713,18.713-18.713
		c10.319,0,18.713,8.395,18.713,18.713S211.266,363.246,200.947,363.246z"/>
	<path d="M120.426,109.151c2.905,0.778,5.852,1.163,8.781,1.163c5.841,0,11.607-1.532,16.802-4.531
		c16.099-9.295,21.634-29.954,12.34-46.053c-4.502-7.799-11.772-13.377-20.471-15.708s-17.784-1.135-25.583,3.368
		c-7.799,4.502-13.377,11.772-15.708,20.471c-2.331,8.699-1.135,17.784,3.368,25.583
		C104.457,101.242,111.727,106.82,120.426,109.151z M111.075,71.744c1.294-4.829,4.391-8.864,8.719-11.363
		c2.94-1.697,6.152-2.503,9.325-2.503c6.472,0,12.775,3.356,16.238,9.353c5.159,8.936,2.086,20.404-6.85,25.563
		c-4.329,2.5-9.373,3.162-14.2,1.87c-4.828-1.294-8.864-4.39-11.363-8.719C110.446,81.615,109.782,76.572,111.075,71.744z"/>
	<path d="M255.886,296.099c-16.099,9.295-21.634,29.955-12.34,46.053v0c6.238,10.803,17.593,16.849,29.254,16.849
		c5.715,0,11.505-1.453,16.8-4.51c16.099-9.295,21.634-29.955,12.34-46.053c-4.502-7.799-11.772-13.377-20.471-15.708
		C272.769,290.399,263.684,291.597,255.886,296.099z M288.949,315.938c5.159,8.936,2.086,20.403-6.85,25.563
		c-8.934,5.16-20.404,2.086-25.563-6.85v0c-5.159-8.936-2.086-20.403,6.85-25.563c4.33-2.5,9.376-3.162,14.2-1.87
		C282.415,308.513,286.45,311.609,288.949,315.938z"/>
	<path d="M59.736,158.341c5.195,3,10.96,4.532,16.802,4.531c2.928,0,5.876-0.385,8.78-1.163c8.698-2.331,15.969-7.909,20.471-15.708
		c4.503-7.799,5.699-16.884,3.368-25.583c-2.331-8.698-7.909-15.968-15.708-20.471c-16.099-9.293-36.758-3.758-46.053,12.34
		C38.102,128.388,43.637,149.047,59.736,158.341z M60.386,119.788c3.462-5.997,9.765-9.353,16.238-9.353
		c3.172,0,6.386,0.807,9.325,2.503c4.329,2.5,7.425,6.535,8.719,11.363c1.293,4.828,0.629,9.871-1.87,14.2
		c-2.499,4.329-6.535,7.426-11.363,8.719c-4.829,1.294-9.871,0.629-14.2-1.87C58.3,140.192,55.228,128.725,60.386,119.788z"/>
	<path d="M91.069,200.941c0-18.59-15.124-33.713-33.713-33.713s-33.713,15.124-33.713,33.713s15.124,33.713,33.713,33.713
		S91.069,219.531,91.069,200.941z M38.642,200.941c0-10.318,8.395-18.713,18.713-18.713s18.713,8.395,18.713,18.713
		s-8.395,18.713-18.713,18.713S38.642,211.259,38.642,200.941z"/>
	<path d="M109.157,281.463c2.331-8.699,1.135-17.784-3.368-25.583c-4.502-7.799-11.772-13.377-20.471-15.708
		s-17.784-1.134-25.583,3.368c-16.099,9.294-21.634,29.954-12.34,46.053c6.237,10.804,17.593,16.85,29.253,16.85
		c5.715,0,11.504-1.453,16.8-4.51C101.248,297.431,106.827,290.161,109.157,281.463z M94.669,277.58
		c-1.294,4.829-4.391,8.864-8.719,11.363c-8.938,5.159-20.404,2.086-25.563-6.85c-5.159-8.937-2.086-20.404,6.85-25.563
		c2.884-1.665,6.083-2.515,9.326-2.515c1.625,0,3.262,0.214,4.874,0.646c4.828,1.294,8.864,4.39,11.363,8.719
		C95.298,267.709,95.962,272.752,94.669,277.58z"/>
	<path d="M146.008,296.099c-7.799-4.503-16.884-5.7-25.583-3.368c-8.698,2.331-15.968,7.909-20.471,15.708
		c-4.503,7.799-5.699,16.884-3.368,25.583c2.331,8.698,7.909,15.968,15.708,20.471c5.195,3,10.959,4.531,16.802,4.531
		c2.928,0,5.876-0.385,8.781-1.163c8.698-2.331,15.968-7.909,20.471-15.708C167.642,326.053,162.107,305.394,146.008,296.099z
		 M145.358,334.652c-5.159,8.937-16.625,12.009-25.563,6.85c-4.329-2.5-7.425-6.535-8.719-11.363
		c-1.293-4.828-0.629-9.871,1.87-14.2c2.499-4.329,6.535-7.425,11.363-8.719c1.612-0.432,3.249-0.646,4.874-0.646
		c3.243,0,6.443,0.851,9.326,2.515C147.444,314.248,150.517,325.716,145.358,334.652z"/>
	<path d="M255.886,105.783c5.195,3,10.96,4.531,16.802,4.531c2.929,0,5.877-0.385,8.781-1.163
		c8.698-2.331,15.969-7.909,20.471-15.708c9.294-16.099,3.759-36.758-12.34-46.053c-16.096-9.293-36.759-3.76-46.054,12.34
		C234.252,75.829,239.787,96.488,255.886,105.783z M256.536,67.23c3.463-5.997,9.766-9.354,16.238-9.354
		c3.173,0,6.386,0.807,9.325,2.503c8.936,5.16,12.009,16.627,6.85,25.563c-2.499,4.329-6.534,7.425-11.363,8.719
		c-4.828,1.292-9.87,0.629-14.2-1.87C254.45,87.633,251.377,76.166,256.536,67.23z"/>
	<path d="M389.064,294.129l-8.073-3.917c13.683-27.581,20.899-58.272,20.899-89.272C401.89,90.141,311.749,0,200.95,0
		C90.146,0,0,90.141,0,200.94c0,110.804,90.146,200.95,200.95,200.95c31.911,0,62.427-7.264,90.699-21.591
		c24.314-12.321,46.17-29.785,63.697-50.782l5.663,6.145c1.426,1.547,3.429,2.417,5.514,2.417c0.211,0,0.423-0.009,0.635-0.027
		c2.309-0.196,4.397-1.448,5.658-3.392l19.266-29.701c1.171-1.804,1.51-4.024,0.933-6.095
		C392.438,296.792,390.998,295.068,389.064,294.129z M284.869,366.918c-26.151,13.252-54.386,19.972-83.919,19.972
		C98.417,386.89,15,303.473,15,200.94C15,98.412,98.417,15,200.95,15C303.478,15,386.89,98.412,386.89,200.94
		c0,28.737-6.697,57.18-19.393,82.726l-62.793-30.464c-3.242-1.574-7.146-0.617-9.294,2.275c-2.149,2.893-1.937,6.906,0.506,9.556
		l49.177,53.358C328.661,338.509,307.959,355.218,284.869,366.918z M365.49,318.39l-31.715-34.412l41.102,19.941L365.49,318.39z"/>
</g>
</svg>